ISO-10303-21;
HEADER;
/* Generated by software containing ST-Developer
 * from STEP Tools, Inc. (www.steptools.com) 
 */

FILE_DESCRIPTION(
/* description */ (''),
/* implementation_level */ '2;1');

FILE_NAME(
/* name */ 'M1-PowerSupply-Relocate.step',
/* time_stamp */ '2026-05-27T12:13:20-07:00',
/* author */ (''),
/* organization */ (''),
/* preprocessor_version */ 'ST-DEVELOPER v20.1',
/* originating_system */ 'Autodesk Translation Framework v15.8.0.0',
/* authorisation */ '');

FILE_SCHEMA (('AUTOMOTIVE_DESIGN { 1 0 10303 214 3 1 1 }'));
ENDSEC;

DATA;
#10=MECHANICAL_DESIGN_GEOMETRIC_PRESENTATION_REPRESENTATION('',(#13),#815);
#11=SHAPE_REPRESENTATION_RELATIONSHIP('SRR','None',#822,#12);
#12=ADVANCED_BREP_SHAPE_REPRESENTATION('',(#14),#814);
#13=STYLED_ITEM('',(#831),#14);
#14=MANIFOLD_SOLID_BREP('Body1',#467);
#15=FACE_BOUND('',#74,.T.);
#16=FACE_BOUND('',#75,.T.);
#17=FACE_BOUND('',#76,.T.);
#18=FACE_BOUND('',#77,.T.);
#19=FACE_BOUND('',#78,.T.);
#20=FACE_BOUND('',#79,.T.);
#21=FACE_BOUND('',#80,.T.);
#22=FACE_BOUND('',#81,.T.);
#23=FACE_BOUND('',#88,.T.);
#24=FACE_BOUND('',#89,.T.);
#25=FACE_BOUND('',#90,.T.);
#26=FACE_BOUND('',#91,.T.);
#27=FACE_BOUND('',#92,.T.);
#28=FACE_BOUND('',#93,.T.);
#29=FACE_BOUND('',#94,.T.);
#30=FACE_BOUND('',#95,.T.);
#31=FACE_BOUND('',#100,.T.);
#32=FACE_BOUND('',#103,.T.);
#33=FACE_BOUND('',#106,.T.);
#34=FACE_BOUND('',#109,.T.);
#35=PLANE('',#484);
#36=PLANE('',#485);
#37=PLANE('',#499);
#38=PLANE('',#500);
#39=PLANE('',#503);
#40=PLANE('',#504);
#41=PLANE('',#519);
#42=PLANE('',#523);
#43=PLANE('',#527);
#44=PLANE('',#530);
#45=FACE_OUTER_BOUND('',#71,.T.);
#46=FACE_OUTER_BOUND('',#72,.T.);
#47=FACE_OUTER_BOUND('',#73,.T.);
#48=FACE_OUTER_BOUND('',#82,.T.);
#49=FACE_OUTER_BOUND('',#83,.T.);
#50=FACE_OUTER_BOUND('',#84,.T.);
#51=FACE_OUTER_BOUND('',#85,.T.);
#52=FACE_OUTER_BOUND('',#86,.T.);
#53=FACE_OUTER_BOUND('',#87,.T.);
#54=FACE_OUTER_BOUND('',#96,.T.);
#55=FACE_OUTER_BOUND('',#97,.T.);
#56=FACE_OUTER_BOUND('',#98,.T.);
#57=FACE_OUTER_BOUND('',#99,.T.);
#58=FACE_OUTER_BOUND('',#101,.T.);
#59=FACE_OUTER_BOUND('',#102,.T.);
#60=FACE_OUTER_BOUND('',#104,.T.);
#61=FACE_OUTER_BOUND('',#105,.T.);
#62=FACE_OUTER_BOUND('',#107,.T.);
#63=FACE_OUTER_BOUND('',#108,.T.);
#64=FACE_OUTER_BOUND('',#110,.T.);
#65=FACE_OUTER_BOUND('',#111,.T.);
#66=FACE_OUTER_BOUND('',#112,.T.);
#67=FACE_OUTER_BOUND('',#113,.T.);
#68=FACE_OUTER_BOUND('',#114,.T.);
#69=FACE_OUTER_BOUND('',#115,.T.);
#70=FACE_OUTER_BOUND('',#116,.T.);
#71=EDGE_LOOP('',(#305,#306,#307,#308));
#72=EDGE_LOOP('',(#309,#310,#311,#312));
#73=EDGE_LOOP('',(#313,#314,#315,#316,#317,#318,#319,#320));
#74=EDGE_LOOP('',(#321));
#75=EDGE_LOOP('',(#322));
#76=EDGE_LOOP('',(#323));
#77=EDGE_LOOP('',(#324));
#78=EDGE_LOOP('',(#325));
#79=EDGE_LOOP('',(#326));
#80=EDGE_LOOP('',(#327));
#81=EDGE_LOOP('',(#328));
#82=EDGE_LOOP('',(#329,#330,#331,#332));
#83=EDGE_LOOP('',(#333,#334,#335,#336));
#84=EDGE_LOOP('',(#337,#338,#339,#340));
#85=EDGE_LOOP('',(#341,#342,#343,#344));
#86=EDGE_LOOP('',(#345,#346,#347,#348));
#87=EDGE_LOOP('',(#349,#350,#351,#352,#353,#354,#355,#356));
#88=EDGE_LOOP('',(#357));
#89=EDGE_LOOP('',(#358));
#90=EDGE_LOOP('',(#359));
#91=EDGE_LOOP('',(#360));
#92=EDGE_LOOP('',(#361));
#93=EDGE_LOOP('',(#362));
#94=EDGE_LOOP('',(#363));
#95=EDGE_LOOP('',(#364));
#96=EDGE_LOOP('',(#365,#366,#367,#368));
#97=EDGE_LOOP('',(#369,#370,#371,#372));
#98=EDGE_LOOP('',(#373,#374,#375,#376));
#99=EDGE_LOOP('',(#377));
#100=EDGE_LOOP('',(#378));
#101=EDGE_LOOP('',(#379,#380,#381,#382));
#102=EDGE_LOOP('',(#383));
#103=EDGE_LOOP('',(#384));
#104=EDGE_LOOP('',(#385,#386,#387,#388));
#105=EDGE_LOOP('',(#389));
#106=EDGE_LOOP('',(#390));
#107=EDGE_LOOP('',(#391,#392,#393,#394));
#108=EDGE_LOOP('',(#395));
#109=EDGE_LOOP('',(#396));
#110=EDGE_LOOP('',(#397,#398,#399,#400));
#111=EDGE_LOOP('',(#401,#402,#403,#404));
#112=EDGE_LOOP('',(#405,#406,#407,#408));
#113=EDGE_LOOP('',(#409,#410,#411,#412));
#114=EDGE_LOOP('',(#413,#414,#415,#416));
#115=EDGE_LOOP('',(#417,#418,#419,#420));
#116=EDGE_LOOP('',(#421,#422,#423,#424));
#117=LINE('',#691,#145);
#118=LINE('',#694,#146);
#119=LINE('',#697,#147);
#120=LINE('',#699,#148);
#121=LINE('',#700,#149);
#122=LINE('',#703,#150);
#123=LINE('',#707,#151);
#124=LINE('',#711,#152);
#125=LINE('',#732,#153);
#126=LINE('',#735,#154);
#127=LINE('',#736,#155);
#128=LINE('',#739,#156);
#129=LINE('',#740,#157);
#130=LINE('',#744,#158);
#131=LINE('',#747,#159);
#132=LINE('',#748,#160);
#133=LINE('',#770,#161);
#134=LINE('',#775,#162);
#135=LINE('',#782,#163);
#136=LINE('',#789,#164);
#137=LINE('',#794,#165);
#138=LINE('',#799,#166);
#139=LINE('',#801,#167);
#140=LINE('',#803,#168);
#141=LINE('',#805,#169);
#142=LINE('',#807,#170);
#143=LINE('',#809,#171);
#144=LINE('',#811,#172);
#145=VECTOR('',#545,10.);
#146=VECTOR('',#548,10.);
#147=VECTOR('',#551,10.);
#148=VECTOR('',#552,10.);
#149=VECTOR('',#553,10.);
#150=VECTOR('',#556,10.);
#151=VECTOR('',#559,10.);
#152=VECTOR('',#562,10.);
#153=VECTOR('',#585,10.);
#154=VECTOR('',#588,10.);
#155=VECTOR('',#589,10.);
#156=VECTOR('',#592,10.);
#157=VECTOR('',#593,10.);
#158=VECTOR('',#598,10.);
#159=VECTOR('',#601,10.);
#160=VECTOR('',#602,10.);
#161=VECTOR('',#627,3.5);
#162=VECTOR('',#634,5.);
#163=VECTOR('',#643,5.);
#164=VECTOR('',#652,5.);
#165=VECTOR('',#659,5.);
#166=VECTOR('',#666,2.5);
#167=VECTOR('',#669,2.5);
#168=VECTOR('',#672,2.5);
#169=VECTOR('',#675,2.5);
#170=VECTOR('',#678,3.);
#171=VECTOR('',#681,3.);
#172=VECTOR('',#684,3.);
#173=CIRCLE('',#482,6.);
#174=CIRCLE('',#483,6.);
#175=CIRCLE('',#486,6.);
#176=CIRCLE('',#487,6.);
#177=CIRCLE('',#488,6.);
#178=CIRCLE('',#489,2.5);
#179=CIRCLE('',#490,2.5);
#180=CIRCLE('',#491,2.5);
#181=CIRCLE('',#492,2.5);
#182=CIRCLE('',#493,5.);
#183=CIRCLE('',#494,5.);
#184=CIRCLE('',#495,5.);
#185=CIRCLE('',#496,5.);
#186=CIRCLE('',#498,6.);
#187=CIRCLE('',#502,6.);
#188=CIRCLE('',#505,6.);
#189=CIRCLE('',#506,3.);
#190=CIRCLE('',#507,3.);
#191=CIRCLE('',#508,3.);
#192=CIRCLE('',#509,3.);
#193=CIRCLE('',#510,2.5);
#194=CIRCLE('',#511,2.5);
#195=CIRCLE('',#512,2.5);
#196=CIRCLE('',#513,2.5);
#197=CIRCLE('',#516,3.);
#198=CIRCLE('',#518,5.);
#199=CIRCLE('',#520,3.);
#200=CIRCLE('',#522,5.);
#201=CIRCLE('',#524,3.);
#202=CIRCLE('',#526,5.);
#203=CIRCLE('',#529,5.);
#204=CIRCLE('',#531,3.);
#205=VERTEX_POINT('',#687);
#206=VERTEX_POINT('',#688);
#207=VERTEX_POINT('',#690);
#208=VERTEX_POINT('',#692);
#209=VERTEX_POINT('',#696);
#210=VERTEX_POINT('',#698);
#211=VERTEX_POINT('',#702);
#212=VERTEX_POINT('',#704);
#213=VERTEX_POINT('',#706);
#214=VERTEX_POINT('',#708);
#215=VERTEX_POINT('',#710);
#216=VERTEX_POINT('',#713);
#217=VERTEX_POINT('',#715);
#218=VERTEX_POINT('',#717);
#219=VERTEX_POINT('',#719);
#220=VERTEX_POINT('',#721);
#221=VERTEX_POINT('',#723);
#222=VERTEX_POINT('',#725);
#223=VERTEX_POINT('',#727);
#224=VERTEX_POINT('',#730);
#225=VERTEX_POINT('',#734);
#226=VERTEX_POINT('',#738);
#227=VERTEX_POINT('',#742);
#228=VERTEX_POINT('',#746);
#229=VERTEX_POINT('',#751);
#230=VERTEX_POINT('',#753);
#231=VERTEX_POINT('',#755);
#232=VERTEX_POINT('',#757);
#233=VERTEX_POINT('',#759);
#234=VERTEX_POINT('',#761);
#235=VERTEX_POINT('',#763);
#236=VERTEX_POINT('',#765);
#237=VERTEX_POINT('',#769);
#238=VERTEX_POINT('',#773);
#239=VERTEX_POINT('',#777);
#240=VERTEX_POINT('',#780);
#241=VERTEX_POINT('',#784);
#242=VERTEX_POINT('',#787);
#243=VERTEX_POINT('',#792);
#244=VERTEX_POINT('',#796);
#245=EDGE_CURVE('',#205,#206,#173,.T.);
#246=EDGE_CURVE('',#206,#207,#117,.T.);
#247=EDGE_CURVE('',#207,#208,#174,.T.);
#248=EDGE_CURVE('',#208,#205,#118,.T.);
#249=EDGE_CURVE('',#209,#206,#119,.F.);
#250=EDGE_CURVE('',#210,#209,#120,.T.);
#251=EDGE_CURVE('',#207,#210,#121,.T.);
#252=EDGE_CURVE('',#205,#211,#122,.T.);
#253=EDGE_CURVE('',#212,#211,#175,.T.);
#254=EDGE_CURVE('',#213,#212,#123,.T.);
#255=EDGE_CURVE('',#214,#213,#176,.T.);
#256=EDGE_CURVE('',#215,#214,#124,.T.);
#257=EDGE_CURVE('',#209,#215,#177,.T.);
#258=EDGE_CURVE('',#216,#216,#178,.T.);
#259=EDGE_CURVE('',#217,#217,#179,.T.);
#260=EDGE_CURVE('',#218,#218,#180,.T.);
#261=EDGE_CURVE('',#219,#219,#181,.T.);
#262=EDGE_CURVE('',#220,#220,#182,.T.);
#263=EDGE_CURVE('',#221,#221,#183,.T.);
#264=EDGE_CURVE('',#222,#222,#184,.T.);
#265=EDGE_CURVE('',#223,#223,#185,.T.);
#266=EDGE_CURVE('',#224,#210,#186,.T.);
#267=EDGE_CURVE('',#215,#224,#125,.T.);
#268=EDGE_CURVE('',#225,#214,#126,.T.);
#269=EDGE_CURVE('',#224,#225,#127,.T.);
#270=EDGE_CURVE('',#226,#208,#128,.T.);
#271=EDGE_CURVE('',#211,#226,#129,.T.);
#272=EDGE_CURVE('',#226,#227,#187,.T.);
#273=EDGE_CURVE('',#227,#212,#130,.T.);
#274=EDGE_CURVE('',#227,#228,#131,.F.);
#275=EDGE_CURVE('',#213,#228,#132,.T.);
#276=EDGE_CURVE('',#228,#225,#188,.T.);
#277=EDGE_CURVE('',#229,#229,#189,.T.);
#278=EDGE_CURVE('',#230,#230,#190,.T.);
#279=EDGE_CURVE('',#231,#231,#191,.T.);
#280=EDGE_CURVE('',#232,#232,#192,.T.);
#281=EDGE_CURVE('',#233,#233,#193,.T.);
#282=EDGE_CURVE('',#234,#234,#194,.T.);
#283=EDGE_CURVE('',#235,#235,#195,.T.);
#284=EDGE_CURVE('',#236,#236,#196,.T.);
#285=EDGE_CURVE('',#230,#237,#133,.T.);
#286=EDGE_CURVE('',#237,#237,#197,.T.);
#287=EDGE_CURVE('',#238,#238,#198,.T.);
#288=EDGE_CURVE('',#238,#223,#134,.T.);
#289=EDGE_CURVE('',#239,#239,#199,.T.);
#290=EDGE_CURVE('',#240,#240,#200,.T.);
#291=EDGE_CURVE('',#240,#222,#135,.T.);
#292=EDGE_CURVE('',#241,#241,#201,.T.);
#293=EDGE_CURVE('',#242,#242,#202,.T.);
#294=EDGE_CURVE('',#242,#221,#136,.T.);
#295=EDGE_CURVE('',#243,#243,#203,.T.);
#296=EDGE_CURVE('',#243,#220,#137,.T.);
#297=EDGE_CURVE('',#244,#244,#204,.T.);
#298=EDGE_CURVE('',#216,#236,#138,.T.);
#299=EDGE_CURVE('',#217,#235,#139,.T.);
#300=EDGE_CURVE('',#218,#234,#140,.T.);
#301=EDGE_CURVE('',#219,#233,#141,.T.);
#302=EDGE_CURVE('',#244,#231,#142,.T.);
#303=EDGE_CURVE('',#239,#232,#143,.T.);
#304=EDGE_CURVE('',#241,#229,#144,.T.);
#305=ORIENTED_EDGE('',*,*,#245,.T.);
#306=ORIENTED_EDGE('',*,*,#246,.T.);
#307=ORIENTED_EDGE('',*,*,#247,.T.);
#308=ORIENTED_EDGE('',*,*,#248,.T.);
#309=ORIENTED_EDGE('',*,*,#246,.F.);
#310=ORIENTED_EDGE('',*,*,#249,.F.);
#311=ORIENTED_EDGE('',*,*,#250,.F.);
#312=ORIENTED_EDGE('',*,*,#251,.F.);
#313=ORIENTED_EDGE('',*,*,#245,.F.);
#314=ORIENTED_EDGE('',*,*,#252,.T.);
#315=ORIENTED_EDGE('',*,*,#253,.F.);
#316=ORIENTED_EDGE('',*,*,#254,.F.);
#317=ORIENTED_EDGE('',*,*,#255,.F.);
#318=ORIENTED_EDGE('',*,*,#256,.F.);
#319=ORIENTED_EDGE('',*,*,#257,.F.);
#320=ORIENTED_EDGE('',*,*,#249,.T.);
#321=ORIENTED_EDGE('',*,*,#258,.T.);
#322=ORIENTED_EDGE('',*,*,#259,.T.);
#323=ORIENTED_EDGE('',*,*,#260,.T.);
#324=ORIENTED_EDGE('',*,*,#261,.T.);
#325=ORIENTED_EDGE('',*,*,#262,.T.);
#326=ORIENTED_EDGE('',*,*,#263,.T.);
#327=ORIENTED_EDGE('',*,*,#264,.T.);
#328=ORIENTED_EDGE('',*,*,#265,.T.);
#329=ORIENTED_EDGE('',*,*,#266,.T.);
#330=ORIENTED_EDGE('',*,*,#250,.T.);
#331=ORIENTED_EDGE('',*,*,#257,.T.);
#332=ORIENTED_EDGE('',*,*,#267,.T.);
#333=ORIENTED_EDGE('',*,*,#267,.F.);
#334=ORIENTED_EDGE('',*,*,#256,.T.);
#335=ORIENTED_EDGE('',*,*,#268,.F.);
#336=ORIENTED_EDGE('',*,*,#269,.F.);
#337=ORIENTED_EDGE('',*,*,#248,.F.);
#338=ORIENTED_EDGE('',*,*,#270,.F.);
#339=ORIENTED_EDGE('',*,*,#271,.F.);
#340=ORIENTED_EDGE('',*,*,#252,.F.);
#341=ORIENTED_EDGE('',*,*,#272,.T.);
#342=ORIENTED_EDGE('',*,*,#273,.T.);
#343=ORIENTED_EDGE('',*,*,#253,.T.);
#344=ORIENTED_EDGE('',*,*,#271,.T.);
#345=ORIENTED_EDGE('',*,*,#273,.F.);
#346=ORIENTED_EDGE('',*,*,#274,.T.);
#347=ORIENTED_EDGE('',*,*,#275,.F.);
#348=ORIENTED_EDGE('',*,*,#254,.T.);
#349=ORIENTED_EDGE('',*,*,#247,.F.);
#350=ORIENTED_EDGE('',*,*,#251,.T.);
#351=ORIENTED_EDGE('',*,*,#266,.F.);
#352=ORIENTED_EDGE('',*,*,#269,.T.);
#353=ORIENTED_EDGE('',*,*,#276,.F.);
#354=ORIENTED_EDGE('',*,*,#274,.F.);
#355=ORIENTED_EDGE('',*,*,#272,.F.);
#356=ORIENTED_EDGE('',*,*,#270,.T.);
#357=ORIENTED_EDGE('',*,*,#277,.F.);
#358=ORIENTED_EDGE('',*,*,#278,.F.);
#359=ORIENTED_EDGE('',*,*,#279,.F.);
#360=ORIENTED_EDGE('',*,*,#280,.F.);
#361=ORIENTED_EDGE('',*,*,#281,.T.);
#362=ORIENTED_EDGE('',*,*,#282,.T.);
#363=ORIENTED_EDGE('',*,*,#283,.T.);
#364=ORIENTED_EDGE('',*,*,#284,.T.);
#365=ORIENTED_EDGE('',*,*,#255,.T.);
#366=ORIENTED_EDGE('',*,*,#275,.T.);
#367=ORIENTED_EDGE('',*,*,#276,.T.);
#368=ORIENTED_EDGE('',*,*,#268,.T.);
#369=ORIENTED_EDGE('',*,*,#278,.T.);
#370=ORIENTED_EDGE('',*,*,#285,.T.);
#371=ORIENTED_EDGE('',*,*,#286,.F.);
#372=ORIENTED_EDGE('',*,*,#285,.F.);
#373=ORIENTED_EDGE('',*,*,#287,.F.);
#374=ORIENTED_EDGE('',*,*,#288,.T.);
#375=ORIENTED_EDGE('',*,*,#265,.F.);
#376=ORIENTED_EDGE('',*,*,#288,.F.);
#377=ORIENTED_EDGE('',*,*,#287,.T.);
#378=ORIENTED_EDGE('',*,*,#289,.T.);
#379=ORIENTED_EDGE('',*,*,#290,.F.);
#380=ORIENTED_EDGE('',*,*,#291,.T.);
#381=ORIENTED_EDGE('',*,*,#264,.F.);
#382=ORIENTED_EDGE('',*,*,#291,.F.);
#383=ORIENTED_EDGE('',*,*,#290,.T.);
#384=ORIENTED_EDGE('',*,*,#292,.T.);
#385=ORIENTED_EDGE('',*,*,#293,.F.);
#386=ORIENTED_EDGE('',*,*,#294,.T.);
#387=ORIENTED_EDGE('',*,*,#263,.F.);
#388=ORIENTED_EDGE('',*,*,#294,.F.);
#389=ORIENTED_EDGE('',*,*,#293,.T.);
#390=ORIENTED_EDGE('',*,*,#286,.T.);
#391=ORIENTED_EDGE('',*,*,#295,.F.);
#392=ORIENTED_EDGE('',*,*,#296,.T.);
#393=ORIENTED_EDGE('',*,*,#262,.F.);
#394=ORIENTED_EDGE('',*,*,#296,.F.);
#395=ORIENTED_EDGE('',*,*,#295,.T.);
#396=ORIENTED_EDGE('',*,*,#297,.T.);
#397=ORIENTED_EDGE('',*,*,#258,.F.);
#398=ORIENTED_EDGE('',*,*,#298,.T.);
#399=ORIENTED_EDGE('',*,*,#284,.F.);
#400=ORIENTED_EDGE('',*,*,#298,.F.);
#401=ORIENTED_EDGE('',*,*,#259,.F.);
#402=ORIENTED_EDGE('',*,*,#299,.T.);
#403=ORIENTED_EDGE('',*,*,#283,.F.);
#404=ORIENTED_EDGE('',*,*,#299,.F.);
#405=ORIENTED_EDGE('',*,*,#260,.F.);
#406=ORIENTED_EDGE('',*,*,#300,.T.);
#407=ORIENTED_EDGE('',*,*,#282,.F.);
#408=ORIENTED_EDGE('',*,*,#300,.F.);
#409=ORIENTED_EDGE('',*,*,#261,.F.);
#410=ORIENTED_EDGE('',*,*,#301,.T.);
#411=ORIENTED_EDGE('',*,*,#281,.F.);
#412=ORIENTED_EDGE('',*,*,#301,.F.);
#413=ORIENTED_EDGE('',*,*,#297,.F.);
#414=ORIENTED_EDGE('',*,*,#302,.T.);
#415=ORIENTED_EDGE('',*,*,#279,.T.);
#416=ORIENTED_EDGE('',*,*,#302,.F.);
#417=ORIENTED_EDGE('',*,*,#289,.F.);
#418=ORIENTED_EDGE('',*,*,#303,.T.);
#419=ORIENTED_EDGE('',*,*,#280,.T.);
#420=ORIENTED_EDGE('',*,*,#303,.F.);
#421=ORIENTED_EDGE('',*,*,#292,.F.);
#422=ORIENTED_EDGE('',*,*,#304,.T.);
#423=ORIENTED_EDGE('',*,*,#277,.T.);
#424=ORIENTED_EDGE('',*,*,#304,.F.);
#425=CYLINDRICAL_SURFACE('',#481,6.);
#426=CYLINDRICAL_SURFACE('',#497,6.);
#427=CYLINDRICAL_SURFACE('',#501,6.);
#428=CYLINDRICAL_SURFACE('',#514,6.);
#429=CYLINDRICAL_SURFACE('',#515,3.);
#430=CYLINDRICAL_SURFACE('',#517,5.);
#431=CYLINDRICAL_SURFACE('',#521,5.);
#432=CYLINDRICAL_SURFACE('',#525,5.);
#433=CYLINDRICAL_SURFACE('',#528,5.);
#434=CYLINDRICAL_SURFACE('',#532,2.5);
#435=CYLINDRICAL_SURFACE('',#533,2.5);
#436=CYLINDRICAL_SURFACE('',#534,2.5);
#437=CYLINDRICAL_SURFACE('',#535,2.5);
#438=CYLINDRICAL_SURFACE('',#536,3.);
#439=CYLINDRICAL_SURFACE('',#537,3.);
#440=CYLINDRICAL_SURFACE('',#538,3.);
#441=ADVANCED_FACE('',(#45),#425,.T.);
#442=ADVANCED_FACE('',(#46),#35,.T.);
#443=ADVANCED_FACE('',(#47,#15,#16,#17,#18,#19,#20,#21,#22),#36,.T.);
#444=ADVANCED_FACE('',(#48),#426,.T.);
#445=ADVANCED_FACE('',(#49),#37,.T.);
#446=ADVANCED_FACE('',(#50),#38,.T.);
#447=ADVANCED_FACE('',(#51),#427,.T.);
#448=ADVANCED_FACE('',(#52),#39,.T.);
#449=ADVANCED_FACE('',(#53,#23,#24,#25,#26,#27,#28,#29,#30),#40,.F.);
#450=ADVANCED_FACE('',(#54),#428,.T.);
#451=ADVANCED_FACE('',(#55),#429,.F.);
#452=ADVANCED_FACE('',(#56),#430,.T.);
#453=ADVANCED_FACE('',(#57,#31),#41,.T.);
#454=ADVANCED_FACE('',(#58),#431,.T.);
#455=ADVANCED_FACE('',(#59,#32),#42,.T.);
#456=ADVANCED_FACE('',(#60),#432,.T.);
#457=ADVANCED_FACE('',(#61,#33),#43,.T.);
#458=ADVANCED_FACE('',(#62),#433,.T.);
#459=ADVANCED_FACE('',(#63,#34),#44,.T.);
#460=ADVANCED_FACE('',(#64),#434,.F.);
#461=ADVANCED_FACE('',(#65),#435,.F.);
#462=ADVANCED_FACE('',(#66),#436,.F.);
#463=ADVANCED_FACE('',(#67),#437,.F.);
#464=ADVANCED_FACE('',(#68),#438,.F.);
#465=ADVANCED_FACE('',(#69),#439,.F.);
#466=ADVANCED_FACE('',(#70),#440,.F.);
#467=CLOSED_SHELL('',(#441,#442,#443,#444,#445,#446,#447,#448,#449,#450,
#451,#452,#453,#454,#455,#456,#457,#458,#459,#460,#461,#462,#463,#464,#465,
#466));
#468=DERIVED_UNIT_ELEMENT(#470,1.);
#469=DERIVED_UNIT_ELEMENT(#817,-3.);
#470=(
MASS_UNIT()
NAMED_UNIT(*)
SI_UNIT(.KILO.,.GRAM.)
);
#471=DERIVED_UNIT((#468,#469));
#472=MEASURE_REPRESENTATION_ITEM('density measure',
POSITIVE_RATIO_MEASURE(7850.),#471);
#473=PROPERTY_DEFINITION_REPRESENTATION(#478,#475);
#474=PROPERTY_DEFINITION_REPRESENTATION(#479,#476);
#475=REPRESENTATION('material name',(#477),#814);
#476=REPRESENTATION('density',(#472),#814);
#477=DESCRIPTIVE_REPRESENTATION_ITEM('Steel','Steel');
#478=PROPERTY_DEFINITION('material property','material name',#824);
#479=PROPERTY_DEFINITION('material property','density of part',#824);
#480=AXIS2_PLACEMENT_3D('',#685,#539,#540);
#481=AXIS2_PLACEMENT_3D('',#686,#541,#542);
#482=AXIS2_PLACEMENT_3D('',#689,#543,#544);
#483=AXIS2_PLACEMENT_3D('',#693,#546,#547);
#484=AXIS2_PLACEMENT_3D('',#695,#549,#550);
#485=AXIS2_PLACEMENT_3D('',#701,#554,#555);
#486=AXIS2_PLACEMENT_3D('',#705,#557,#558);
#487=AXIS2_PLACEMENT_3D('',#709,#560,#561);
#488=AXIS2_PLACEMENT_3D('',#712,#563,#564);
#489=AXIS2_PLACEMENT_3D('',#714,#565,#566);
#490=AXIS2_PLACEMENT_3D('',#716,#567,#568);
#491=AXIS2_PLACEMENT_3D('',#718,#569,#570);
#492=AXIS2_PLACEMENT_3D('',#720,#571,#572);
#493=AXIS2_PLACEMENT_3D('',#722,#573,#574);
#494=AXIS2_PLACEMENT_3D('',#724,#575,#576);
#495=AXIS2_PLACEMENT_3D('',#726,#577,#578);
#496=AXIS2_PLACEMENT_3D('',#728,#579,#580);
#497=AXIS2_PLACEMENT_3D('',#729,#581,#582);
#498=AXIS2_PLACEMENT_3D('',#731,#583,#584);
#499=AXIS2_PLACEMENT_3D('',#733,#586,#587);
#500=AXIS2_PLACEMENT_3D('',#737,#590,#591);
#501=AXIS2_PLACEMENT_3D('',#741,#594,#595);
#502=AXIS2_PLACEMENT_3D('',#743,#596,#597);
#503=AXIS2_PLACEMENT_3D('',#745,#599,#600);
#504=AXIS2_PLACEMENT_3D('',#749,#603,#604);
#505=AXIS2_PLACEMENT_3D('',#750,#605,#606);
#506=AXIS2_PLACEMENT_3D('',#752,#607,#608);
#507=AXIS2_PLACEMENT_3D('',#754,#609,#610);
#508=AXIS2_PLACEMENT_3D('',#756,#611,#612);
#509=AXIS2_PLACEMENT_3D('',#758,#613,#614);
#510=AXIS2_PLACEMENT_3D('',#760,#615,#616);
#511=AXIS2_PLACEMENT_3D('',#762,#617,#618);
#512=AXIS2_PLACEMENT_3D('',#764,#619,#620);
#513=AXIS2_PLACEMENT_3D('',#766,#621,#622);
#514=AXIS2_PLACEMENT_3D('',#767,#623,#624);
#515=AXIS2_PLACEMENT_3D('',#768,#625,#626);
#516=AXIS2_PLACEMENT_3D('',#771,#628,#629);
#517=AXIS2_PLACEMENT_3D('',#772,#630,#631);
#518=AXIS2_PLACEMENT_3D('',#774,#632,#633);
#519=AXIS2_PLACEMENT_3D('',#776,#635,#636);
#520=AXIS2_PLACEMENT_3D('',#778,#637,#638);
#521=AXIS2_PLACEMENT_3D('',#779,#639,#640);
#522=AXIS2_PLACEMENT_3D('',#781,#641,#642);
#523=AXIS2_PLACEMENT_3D('',#783,#644,#645);
#524=AXIS2_PLACEMENT_3D('',#785,#646,#647);
#525=AXIS2_PLACEMENT_3D('',#786,#648,#649);
#526=AXIS2_PLACEMENT_3D('',#788,#650,#651);
#527=AXIS2_PLACEMENT_3D('',#790,#653,#654);
#528=AXIS2_PLACEMENT_3D('',#791,#655,#656);
#529=AXIS2_PLACEMENT_3D('',#793,#657,#658);
#530=AXIS2_PLACEMENT_3D('',#795,#660,#661);
#531=AXIS2_PLACEMENT_3D('',#797,#662,#663);
#532=AXIS2_PLACEMENT_3D('',#798,#664,#665);
#533=AXIS2_PLACEMENT_3D('',#800,#667,#668);
#534=AXIS2_PLACEMENT_3D('',#802,#670,#671);
#535=AXIS2_PLACEMENT_3D('',#804,#673,#674);
#536=AXIS2_PLACEMENT_3D('',#806,#676,#677);
#537=AXIS2_PLACEMENT_3D('',#808,#679,#680);
#538=AXIS2_PLACEMENT_3D('',#810,#682,#683);
#539=DIRECTION('axis',(0.,0.,1.));
#540=DIRECTION('refdir',(1.,0.,0.));
#541=DIRECTION('center_axis',(0.,0.,1.));
#542=DIRECTION('ref_axis',(-0.70710678118655,0.707106781186545,0.));
#543=DIRECTION('center_axis',(0.,0.,-1.));
#544=DIRECTION('ref_axis',(-0.70710678118655,0.707106781186545,0.));
#545=DIRECTION('',(0.,0.,-1.));
#546=DIRECTION('center_axis',(0.,0.,1.));
#547=DIRECTION('ref_axis',(-0.70710678118655,0.707106781186545,0.));
#548=DIRECTION('',(0.,0.,1.));
#549=DIRECTION('center_axis',(-2.22044604925031E-16,1.,0.));
#550=DIRECTION('ref_axis',(-1.,-2.22044604925031E-16,0.));
#551=DIRECTION('',(1.,2.22044604925031E-16,0.));
#552=DIRECTION('',(0.,0.,1.));
#553=DIRECTION('',(1.,2.22044604925031E-16,0.));
#554=DIRECTION('center_axis',(0.,0.,1.));
#555=DIRECTION('ref_axis',(-2.22044604925031E-16,1.,0.));
#556=DIRECTION('',(2.22044604925031E-16,-1.,0.));
#557=DIRECTION('center_axis',(0.,0.,-1.));
#558=DIRECTION('ref_axis',(-0.707106781186547,-0.707106781186547,0.));
#559=DIRECTION('',(-1.,0.,0.));
#560=DIRECTION('center_axis',(0.,0.,-1.));
#561=DIRECTION('ref_axis',(0.707106781186547,-0.707106781186547,0.));
#562=DIRECTION('',(0.,-1.,0.));
#563=DIRECTION('center_axis',(0.,0.,-1.));
#564=DIRECTION('ref_axis',(0.707106781186547,0.707106781186547,0.));
#565=DIRECTION('center_axis',(0.,0.,-1.));
#566=DIRECTION('ref_axis',(1.,0.,0.));
#567=DIRECTION('center_axis',(0.,0.,-1.));
#568=DIRECTION('ref_axis',(1.,0.,0.));
#569=DIRECTION('center_axis',(0.,0.,-1.));
#570=DIRECTION('ref_axis',(1.,0.,0.));
#571=DIRECTION('center_axis',(0.,0.,-1.));
#572=DIRECTION('ref_axis',(1.,0.,0.));
#573=DIRECTION('center_axis',(0.,0.,-1.));
#574=DIRECTION('ref_axis',(-1.,0.,0.));
#575=DIRECTION('center_axis',(0.,0.,-1.));
#576=DIRECTION('ref_axis',(-1.,0.,0.));
#577=DIRECTION('center_axis',(0.,0.,-1.));
#578=DIRECTION('ref_axis',(-1.,0.,0.));
#579=DIRECTION('center_axis',(0.,0.,-1.));
#580=DIRECTION('ref_axis',(-1.,0.,0.));
#581=DIRECTION('center_axis',(0.,0.,-1.));
#582=DIRECTION('ref_axis',(0.707106781186547,0.707106781186547,0.));
#583=DIRECTION('center_axis',(0.,0.,1.));
#584=DIRECTION('ref_axis',(0.707106781186547,0.707106781186547,0.));
#585=DIRECTION('',(0.,0.,-1.));
#586=DIRECTION('center_axis',(1.,2.22044604925031E-16,0.));
#587=DIRECTION('ref_axis',(-2.22044604925031E-16,1.,0.));
#588=DIRECTION('',(0.,0.,1.));
#589=DIRECTION('',(2.22044604925031E-16,-1.,0.));
#590=DIRECTION('center_axis',(-1.,-2.22044604925031E-16,0.));
#591=DIRECTION('ref_axis',(2.22044604925031E-16,-1.,0.));
#592=DIRECTION('',(-2.22044604925031E-16,1.,0.));
#593=DIRECTION('',(0.,0.,-1.));
#594=DIRECTION('center_axis',(0.,0.,-1.));
#595=DIRECTION('ref_axis',(-0.707106781186547,-0.707106781186547,0.));
#596=DIRECTION('center_axis',(0.,0.,1.));
#597=DIRECTION('ref_axis',(-0.707106781186547,-0.707106781186547,0.));
#598=DIRECTION('',(0.,0.,1.));
#599=DIRECTION('center_axis',(0.,-1.,0.));
#600=DIRECTION('ref_axis',(0.,0.,-1.));
#601=DIRECTION('',(-1.,0.,0.));
#602=DIRECTION('',(0.,0.,-1.));
#603=DIRECTION('center_axis',(0.,0.,1.));
#604=DIRECTION('ref_axis',(-2.22044604925031E-16,1.,0.));
#605=DIRECTION('center_axis',(0.,0.,1.));
#606=DIRECTION('ref_axis',(0.707106781186547,-0.707106781186547,0.));
#607=DIRECTION('center_axis',(0.,0.,-1.));
#608=DIRECTION('ref_axis',(1.,0.,0.));
#609=DIRECTION('center_axis',(0.,0.,-1.));
#610=DIRECTION('ref_axis',(-1.,0.,0.));
#611=DIRECTION('center_axis',(0.,0.,-1.));
#612=DIRECTION('ref_axis',(1.,0.,0.));
#613=DIRECTION('center_axis',(0.,0.,-1.));
#614=DIRECTION('ref_axis',(1.,0.,0.));
#615=DIRECTION('center_axis',(0.,0.,1.));
#616=DIRECTION('ref_axis',(1.,0.,0.));
#617=DIRECTION('center_axis',(0.,0.,1.));
#618=DIRECTION('ref_axis',(1.,0.,0.));
#619=DIRECTION('center_axis',(0.,0.,1.));
#620=DIRECTION('ref_axis',(1.,0.,0.));
#621=DIRECTION('center_axis',(0.,0.,1.));
#622=DIRECTION('ref_axis',(1.,0.,0.));
#623=DIRECTION('center_axis',(0.,0.,1.));
#624=DIRECTION('ref_axis',(0.707106781186547,-0.707106781186547,0.));
#625=DIRECTION('center_axis',(0.,0.,1.));
#626=DIRECTION('ref_axis',(-1.,0.,0.));
#627=DIRECTION('',(0.,0.,1.));
#628=DIRECTION('center_axis',(0.,0.,-1.));
#629=DIRECTION('ref_axis',(-1.,0.,0.));
#630=DIRECTION('center_axis',(0.,0.,1.));
#631=DIRECTION('ref_axis',(-1.,0.,0.));
#632=DIRECTION('center_axis',(0.,0.,1.));
#633=DIRECTION('ref_axis',(-1.,0.,0.));
#634=DIRECTION('',(0.,0.,-1.));
#635=DIRECTION('center_axis',(0.,0.,1.));
#636=DIRECTION('ref_axis',(-1.,0.,0.));
#637=DIRECTION('center_axis',(0.,0.,-1.));
#638=DIRECTION('ref_axis',(-1.,0.,0.));
#639=DIRECTION('center_axis',(0.,0.,1.));
#640=DIRECTION('ref_axis',(-1.,0.,0.));
#641=DIRECTION('center_axis',(0.,0.,1.));
#642=DIRECTION('ref_axis',(-1.,0.,0.));
#643=DIRECTION('',(0.,0.,-1.));
#644=DIRECTION('center_axis',(0.,0.,1.));
#645=DIRECTION('ref_axis',(-1.,0.,0.));
#646=DIRECTION('center_axis',(0.,0.,-1.));
#647=DIRECTION('ref_axis',(-1.,0.,0.));
#648=DIRECTION('center_axis',(0.,0.,1.));
#649=DIRECTION('ref_axis',(-1.,0.,0.));
#650=DIRECTION('center_axis',(0.,0.,1.));
#651=DIRECTION('ref_axis',(-1.,0.,0.));
#652=DIRECTION('',(0.,0.,-1.));
#653=DIRECTION('center_axis',(0.,0.,1.));
#654=DIRECTION('ref_axis',(-1.,0.,0.));
#655=DIRECTION('center_axis',(0.,0.,1.));
#656=DIRECTION('ref_axis',(-1.,0.,0.));
#657=DIRECTION('center_axis',(0.,0.,1.));
#658=DIRECTION('ref_axis',(-1.,0.,0.));
#659=DIRECTION('',(0.,0.,-1.));
#660=DIRECTION('center_axis',(0.,0.,1.));
#661=DIRECTION('ref_axis',(-1.,0.,0.));
#662=DIRECTION('center_axis',(0.,0.,-1.));
#663=DIRECTION('ref_axis',(-1.,0.,0.));
#664=DIRECTION('center_axis',(0.,0.,-1.));
#665=DIRECTION('ref_axis',(1.,0.,0.));
#666=DIRECTION('',(0.,0.,-1.));
#667=DIRECTION('center_axis',(0.,0.,-1.));
#668=DIRECTION('ref_axis',(1.,0.,0.));
#669=DIRECTION('',(0.,0.,-1.));
#670=DIRECTION('center_axis',(0.,0.,-1.));
#671=DIRECTION('ref_axis',(1.,0.,0.));
#672=DIRECTION('',(0.,0.,-1.));
#673=DIRECTION('center_axis',(0.,0.,-1.));
#674=DIRECTION('ref_axis',(1.,0.,0.));
#675=DIRECTION('',(0.,0.,-1.));
#676=DIRECTION('center_axis',(0.,0.,-1.));
#677=DIRECTION('ref_axis',(1.,0.,0.));
#678=DIRECTION('',(0.,0.,-1.));
#679=DIRECTION('center_axis',(0.,0.,-1.));
#680=DIRECTION('ref_axis',(1.,0.,0.));
#681=DIRECTION('',(0.,0.,-1.));
#682=DIRECTION('center_axis',(0.,0.,-1.));
#683=DIRECTION('ref_axis',(1.,0.,0.));
#684=DIRECTION('',(0.,0.,-1.));
#685=CARTESIAN_POINT('',(0.,0.,0.));
#686=CARTESIAN_POINT('Origin',(-64.0090003948808,45.7788002533197,0.));
#687=CARTESIAN_POINT('',(-70.0090003948808,45.7788002533197,2.));
#688=CARTESIAN_POINT('',(-64.0090003948808,51.7788002533197,2.));
#689=CARTESIAN_POINT('Origin',(-64.0090003948808,45.7788002533197,2.));
#690=CARTESIAN_POINT('',(-64.0090003948808,51.7788002533197,0.));
#691=CARTESIAN_POINT('',(-64.0090003948808,51.7788002533197,0.));
#692=CARTESIAN_POINT('',(-70.0090003948808,45.7788002533197,0.));
#693=CARTESIAN_POINT('Origin',(-64.0090003948808,45.7788002533197,0.));
#694=CARTESIAN_POINT('',(-70.0090003948808,45.7788002533197,0.));
#695=CARTESIAN_POINT('Origin',(54.9909996051192,51.7788002533197,0.));
#696=CARTESIAN_POINT('',(48.9909996051192,51.7788002533197,2.));
#697=CARTESIAN_POINT('',(23.7409996051192,51.7788002533197,2.));
#698=CARTESIAN_POINT('',(48.9909996051192,51.7788002533197,0.));
#699=CARTESIAN_POINT('',(48.9909996051192,51.7788002533197,0.));
#700=CARTESIAN_POINT('',(23.7409996051192,51.7788002533197,0.));
#701=CARTESIAN_POINT('Origin',(-7.50900039488077,-0.221199746680254,2.));
#702=CARTESIAN_POINT('',(-70.0090003948807,-44.7211997466803,2.));
#703=CARTESIAN_POINT('',(-70.0090003948807,-55.2211997466803,2.));
#704=CARTESIAN_POINT('',(-64.0090003948808,-50.7211997466803,2.));
#705=CARTESIAN_POINT('Origin',(-64.0090003948808,-44.7211997466803,2.));
#706=CARTESIAN_POINT('',(48.9909996051192,-50.7211997466803,2.));
#707=CARTESIAN_POINT('',(-38.7590003948808,-50.7211997466803,2.));
#708=CARTESIAN_POINT('',(54.9909996051192,-44.7211997466803,2.));
#709=CARTESIAN_POINT('Origin',(48.9909996051192,-44.7211997466803,2.));
#710=CARTESIAN_POINT('',(54.9909996051192,45.7788002533198,2.));
#711=CARTESIAN_POINT('',(54.9909996051192,-55.2211997466803,2.));
#712=CARTESIAN_POINT('Origin',(48.9909996051192,45.7788002533198,2.));
#713=CARTESIAN_POINT('',(46.4909990612269,45.5213718935848,2.));
#714=CARTESIAN_POINT('Origin',(48.9909990612269,45.5213718935848,2.));
#715=CARTESIAN_POINT('',(-66.5090009387731,45.5213718935848,2.));
#716=CARTESIAN_POINT('Origin',(-64.0090009387731,45.5213718935848,2.));
#717=CARTESIAN_POINT('',(46.4909990612269,-21.4786281064152,2.));
#718=CARTESIAN_POINT('Origin',(48.9909990612269,-21.4786281064152,2.));
#719=CARTESIAN_POINT('',(-66.5090009387731,-21.4786281064152,2.));
#720=CARTESIAN_POINT('Origin',(-64.0090009387731,-21.4786281064152,2.));
#721=CARTESIAN_POINT('',(-59.0090009387731,-44.4786281064152,2.));
#722=CARTESIAN_POINT('Origin',(-64.0090009387731,-44.4786281064152,2.));
#723=CARTESIAN_POINT('',(53.9909990612269,-44.4786281064152,2.));
#724=CARTESIAN_POINT('Origin',(48.9909990612269,-44.4786281064152,2.));
#725=CARTESIAN_POINT('',(53.9909990612269,22.5213718935848,2.));
#726=CARTESIAN_POINT('Origin',(48.9909990612269,22.5213718935848,2.));
#727=CARTESIAN_POINT('',(-59.0090009387731,22.5213718935848,2.));
#728=CARTESIAN_POINT('Origin',(-64.0090009387731,22.5213718935848,2.));
#729=CARTESIAN_POINT('Origin',(48.9909996051192,45.7788002533198,0.));
#730=CARTESIAN_POINT('',(54.9909996051192,45.7788002533198,0.));
#731=CARTESIAN_POINT('Origin',(48.9909996051192,45.7788002533198,0.));
#732=CARTESIAN_POINT('',(54.9909996051192,45.7788002533198,0.));
#733=CARTESIAN_POINT('Origin',(54.9909996051192,-55.2211997466803,0.));
#734=CARTESIAN_POINT('',(54.9909996051192,-44.7211997466802,0.));
#735=CARTESIAN_POINT('',(54.9909996051192,-44.7211997466803,0.));
#736=CARTESIAN_POINT('',(54.9909996051192,54.7788002533197,0.));
#737=CARTESIAN_POINT('Origin',(-70.0090003948808,54.7788002533197,0.));
#738=CARTESIAN_POINT('',(-70.0090003948807,-44.7211997466803,0.));
#739=CARTESIAN_POINT('',(-70.0090003948807,-55.2211997466803,0.));
#740=CARTESIAN_POINT('',(-70.0090003948807,-44.7211997466803,0.));
#741=CARTESIAN_POINT('Origin',(-64.0090003948808,-44.7211997466803,0.));
#742=CARTESIAN_POINT('',(-64.0090003948808,-50.7211997466803,0.));
#743=CARTESIAN_POINT('Origin',(-64.0090003948808,-44.7211997466803,0.));
#744=CARTESIAN_POINT('',(-64.0090003948808,-50.7211997466803,0.));
#745=CARTESIAN_POINT('Origin',(-70.0090003948807,-50.7211997466803,0.));
#746=CARTESIAN_POINT('',(48.9909996051192,-50.7211997466803,0.));
#747=CARTESIAN_POINT('',(-38.7590003948808,-50.7211997466803,0.));
#748=CARTESIAN_POINT('',(48.9909996051192,-50.7211997466803,0.));
#749=CARTESIAN_POINT('Origin',(-7.50900039488077,-0.221199746680254,0.));
#750=CARTESIAN_POINT('Origin',(48.9909996051192,-44.7211997466803,0.));
#751=CARTESIAN_POINT('',(45.9909990612269,22.5213718935848,0.));
#752=CARTESIAN_POINT('Origin',(48.9909990612269,22.5213718935848,0.));
#753=CARTESIAN_POINT('',(51.9909990612269,-44.4786281064152,0.));
#754=CARTESIAN_POINT('Origin',(48.9909990612269,-44.4786281064152,0.));
#755=CARTESIAN_POINT('',(-67.0090009387731,-44.4786281064152,-5.55111512312578E-16));
#756=CARTESIAN_POINT('Origin',(-64.0090009387731,-44.4786281064152,-5.55111512312578E-16));
#757=CARTESIAN_POINT('',(-67.0090009387731,22.5213718935848,0.));
#758=CARTESIAN_POINT('Origin',(-64.0090009387731,22.5213718935848,0.));
#759=CARTESIAN_POINT('',(-66.5090009387731,-21.4786281064152,0.));
#760=CARTESIAN_POINT('Origin',(-64.0090009387731,-21.4786281064152,0.));
#761=CARTESIAN_POINT('',(46.4909990612269,-21.4786281064152,0.));
#762=CARTESIAN_POINT('Origin',(48.9909990612269,-21.4786281064152,0.));
#763=CARTESIAN_POINT('',(-66.5090009387731,45.5213718935848,0.));
#764=CARTESIAN_POINT('Origin',(-64.0090009387731,45.5213718935848,0.));
#765=CARTESIAN_POINT('',(46.4909990612269,45.5213718935848,0.));
#766=CARTESIAN_POINT('Origin',(48.9909990612269,45.5213718935848,0.));
#767=CARTESIAN_POINT('Origin',(48.9909996051192,-44.7211997466803,0.));
#768=CARTESIAN_POINT('Origin',(48.9909990612269,-44.4786281064152,5.));
#769=CARTESIAN_POINT('',(51.9909990612269,-44.4786281064152,4.));
#770=CARTESIAN_POINT('',(51.9909990612269,-44.4786281064152,5.));
#771=CARTESIAN_POINT('Origin',(48.9909990612269,-44.4786281064152,4.));
#772=CARTESIAN_POINT('Origin',(-64.0090009387731,22.5213718935848,2.));
#773=CARTESIAN_POINT('',(-59.0090009387731,22.5213718935848,4.));
#774=CARTESIAN_POINT('Origin',(-64.0090009387731,22.5213718935848,4.));
#775=CARTESIAN_POINT('',(-59.0090009387731,22.5213718935848,2.));
#776=CARTESIAN_POINT('Origin',(-64.0090009387731,22.5213718935848,4.));
#777=CARTESIAN_POINT('',(-67.0090009387731,22.5213718935848,4.));
#778=CARTESIAN_POINT('Origin',(-64.0090009387731,22.5213718935848,4.));
#779=CARTESIAN_POINT('Origin',(48.9909990612269,22.5213718935848,2.));
#780=CARTESIAN_POINT('',(53.9909990612269,22.5213718935848,4.));
#781=CARTESIAN_POINT('Origin',(48.9909990612269,22.5213718935848,4.));
#782=CARTESIAN_POINT('',(53.9909990612269,22.5213718935848,2.));
#783=CARTESIAN_POINT('Origin',(48.9909990612269,22.5213718935848,4.));
#784=CARTESIAN_POINT('',(45.9909990612269,22.5213718935848,4.));
#785=CARTESIAN_POINT('Origin',(48.9909990612269,22.5213718935848,4.));
#786=CARTESIAN_POINT('Origin',(48.9909990612269,-44.4786281064152,2.));
#787=CARTESIAN_POINT('',(53.9909990612269,-44.4786281064152,4.));
#788=CARTESIAN_POINT('Origin',(48.9909990612269,-44.4786281064152,4.));
#789=CARTESIAN_POINT('',(53.9909990612269,-44.4786281064152,2.));
#790=CARTESIAN_POINT('Origin',(48.9909990612269,-44.4786281064152,4.));
#791=CARTESIAN_POINT('Origin',(-64.0090009387731,-44.4786281064152,2.));
#792=CARTESIAN_POINT('',(-59.0090009387731,-44.4786281064152,4.));
#793=CARTESIAN_POINT('Origin',(-64.0090009387731,-44.4786281064152,4.));
#794=CARTESIAN_POINT('',(-59.0090009387731,-44.4786281064152,2.));
#795=CARTESIAN_POINT('Origin',(-64.0090009387731,-44.4786281064152,4.));
#796=CARTESIAN_POINT('',(-67.0090009387731,-44.4786281064152,4.));
#797=CARTESIAN_POINT('Origin',(-64.0090009387731,-44.4786281064152,4.));
#798=CARTESIAN_POINT('Origin',(48.9909990612269,45.5213718935848,1.));
#799=CARTESIAN_POINT('',(46.4909990612269,45.5213718935848,1.));
#800=CARTESIAN_POINT('Origin',(-64.0090009387731,45.5213718935848,1.));
#801=CARTESIAN_POINT('',(-66.5090009387731,45.5213718935848,1.));
#802=CARTESIAN_POINT('Origin',(48.9909990612269,-21.4786281064152,1.));
#803=CARTESIAN_POINT('',(46.4909990612269,-21.4786281064152,1.));
#804=CARTESIAN_POINT('Origin',(-64.0090009387731,-21.4786281064152,1.));
#805=CARTESIAN_POINT('',(-66.5090009387731,-21.4786281064152,1.));
#806=CARTESIAN_POINT('Origin',(-64.0090009387731,-44.4786281064152,1.));
#807=CARTESIAN_POINT('',(-67.0090009387731,-44.4786281064152,1.));
#808=CARTESIAN_POINT('Origin',(-64.0090009387731,22.5213718935848,1.));
#809=CARTESIAN_POINT('',(-67.0090009387731,22.5213718935848,1.));
#810=CARTESIAN_POINT('Origin',(48.9909990612269,22.5213718935848,1.));
#811=CARTESIAN_POINT('',(45.9909990612269,22.5213718935848,1.));
#812=UNCERTAINTY_MEASURE_WITH_UNIT(LENGTH_MEASURE(0.01),#816,
'DISTANCE_ACCURACY_VALUE',
'Maximum model space distance between geometric entities at asserted c
onnectivities');
#813=UNCERTAINTY_MEASURE_WITH_UNIT(LENGTH_MEASURE(0.01),#816,
'DISTANCE_ACCURACY_VALUE',
'Maximum model space distance between geometric entities at asserted c
onnectivities');
#814=(
GEOMETRIC_REPRESENTATION_CONTEXT(3)
GLOBAL_UNCERTAINTY_ASSIGNED_CONTEXT((#812))
GLOBAL_UNIT_ASSIGNED_CONTEXT((#816,#818,#819))
REPRESENTATION_CONTEXT('','3D')
);
#815=(
GEOMETRIC_REPRESENTATION_CONTEXT(3)
GLOBAL_UNCERTAINTY_ASSIGNED_CONTEXT((#813))
GLOBAL_UNIT_ASSIGNED_CONTEXT((#816,#818,#819))
REPRESENTATION_CONTEXT('','3D')
);
#816=(
LENGTH_UNIT()
NAMED_UNIT(*)
SI_UNIT(.MILLI.,.METRE.)
);
#817=(
LENGTH_UNIT()
NAMED_UNIT(*)
SI_UNIT($,.METRE.)
);
#818=(
NAMED_UNIT(*)
PLANE_ANGLE_UNIT()
SI_UNIT($,.RADIAN.)
);
#819=(
NAMED_UNIT(*)
SI_UNIT($,.STERADIAN.)
SOLID_ANGLE_UNIT()
);
#820=SHAPE_DEFINITION_REPRESENTATION(#821,#822);
#821=PRODUCT_DEFINITION_SHAPE('',$,#824);
#822=SHAPE_REPRESENTATION('',(#480),#814);
#823=PRODUCT_DEFINITION_CONTEXT('part definition',#828,'design');
#824=PRODUCT_DEFINITION('M1-PowerSupply-Relocate',
'M1-PowerSupply-Relocate v1',#825,#823);
#825=PRODUCT_DEFINITION_FORMATION('',$,#830);
#826=PRODUCT_RELATED_PRODUCT_CATEGORY('M1-PowerSupply-Relocate v1',
'M1-PowerSupply-Relocate v1',(#830));
#827=APPLICATION_PROTOCOL_DEFINITION('international standard',
'automotive_design',2009,#828);
#828=APPLICATION_CONTEXT(
'Core Data for Automotive Mechanical Design Process');
#829=PRODUCT_CONTEXT('part definition',#828,'mechanical');
#830=PRODUCT('M1-PowerSupply-Relocate','M1-PowerSupply-Relocate v1',$,(#829));
#831=PRESENTATION_STYLE_ASSIGNMENT((#832));
#832=SURFACE_STYLE_USAGE(.BOTH.,#833);
#833=SURFACE_SIDE_STYLE('',(#834));
#834=SURFACE_STYLE_FILL_AREA(#835);
#835=FILL_AREA_STYLE('Steel - Satin',(#836));
#836=FILL_AREA_STYLE_COLOUR('Steel - Satin',#837);
#837=COLOUR_RGB('Steel - Satin',0.627450980392157,0.627450980392157,0.627450980392157);
ENDSEC;
END-ISO-10303-21;
